<?xml version="1.0" encoding="utf-8"?>
<!-- Generator: Adobe Illustrator 21.0.0, SVG Export Plug-In . SVG Version: 6.00 Build 0)  -->
<svg version="1.1" id="Layer_1" xmlns="http://www.w3.org/2000/svg" xmlns:xlink="http://www.w3.org/1999/xlink" x="0px" y="0px"
	 viewBox="0 0 62 83.6" style="enable-background:new 0 0 62 83.6;" xml:space="preserve">
<style type="text/css">
	.st0{display:none;}
	.st1{display:inline;}
</style>
<g class="st0">
	<rect x="-557.4" y="-380.9" class="st1" width="1240.9" height="477.1"/>
</g>
<g>
	<circle cx="28.2" cy="48.2" r="1.6"/>
	<circle cx="33.8" cy="48.2" r="1.6"/>
	<path d="M33.1,55.5L33.1,55.5c0,1.1-0.9,2.1-2.1,2.1s-2.1-0.9-2.1-2.1l0,0v-0.6h-1.1v0.6c0,1.8,1.4,3.2,3.2,3.2s3.2-1.4,3.2-3.2
		v-0.6h-1.1V55.5z"/>
	<path d="M55.5,66.1c0.7-2.1,1-4.3,1-6.6V31.6c0-6.3-2.6-12.1-6.9-16.2c0,0.5,0.1,1,0.1,1.6c0,2.6-0.5,5-1.4,7.2
		c-0.4,0.9-0.8,1.7-1.2,2.5c0.4,1.4,0.6,2.8,0.6,4.2v34.8c0,8.9-7.2,16.1-16.1,16.1s-16.1-7.2-16.1-16.1V44.3
		c-0.6,0.2-1.3,0.4-1.9,0.5c-0.7,0.1-1.4,0.2-2.1,0.2c-2.2,0-4.2-0.6-6-1.5v16c0,2.1,0.3,4.1,0.8,6c-3.6,0.8-6.3,4-6.3,7.8
		c0,4.4,3.6,8,8,8c2.8,0,5.3-1.5,6.7-3.7c2.4,1.8,5.1,3,8.1,3.8c2.6,1.4,5.6,2.3,8.7,2.3c3.6,0,6.9-1.1,9.7-2.9
		c2.3-0.8,4.5-2,6.4-3.4c1.3,2.4,3.8,4,6.7,4c4.2,0,7.7-3.4,7.7-7.7C62,69.8,59.2,66.7,55.5,66.1z M12.7,47v8.5
		c-2.3,0-4.2-1.9-4.2-4.2S10.3,47,12.7,47z M53.6,51.2c0,2.3-1.8,4.1-4,4.2c-0.1,0-0.1,0-0.2,0V47c0.1,0,0.1,0,0.2,0
		C51.8,47.1,53.6,48.9,53.6,51.2z"/>
	<path d="M21.9,33.2l0.1-1.5l1.3,0.6c2.3,1.1,4.8,1.7,7.3,1.7c9.4,0,17-7.6,17-17S40,0,30.6,0s-17,7.6-17,17c0,1.3,0.2,2.6,0.5,3.9
		l0.3,1.4l-1.5-0.2c-0.5-0.1-1-0.1-1.4-0.1C5.7,22,1,26.7,1,32.5S5.7,43,11.5,43C17,43,21.6,38.7,21.9,33.2z"/>
</g>
</svg>
