<?xml version="1.0" encoding="utf-8"?>
<!-- Generator: Adobe Illustrator 21.0.0, SVG Export Plug-In . SVG Version: 6.00 Build 0)  -->
<svg version="1.1" id="Layer_1" xmlns="http://www.w3.org/2000/svg" xmlns:xlink="http://www.w3.org/1999/xlink" x="0px" y="0px"
	 viewBox="0 0 61 86.7" style="enable-background:new 0 0 61 86.7;" xml:space="preserve">
<style type="text/css">
	.st0{display:none;}
	.st1{display:inline;}
	.st2{fill:none;}
</style>
<g class="st0">
	<rect x="-61.4" y="-134.9" class="st1" width="1240.9" height="477.1"/>
</g>
<g>
	<path class="st2" d="M17.4,46c1.6,1.5,4.1,1.1,5.2-0.7c2.2-3.5,3.9-3.6,7.9-3.6c3.9,0,5.8,0.1,7.9,3.6c1.1,1.8,3.6,2.2,5.2,0.7
		l6-5.7c0.6-0.6,1.4-0.9,2.1-0.9V20.1c0-0.2,0-0.3,0-0.5l0-0.1c0-1-0.1-2-0.3-3l1.1-0.4l-1.1,0.3l0-0.1v0c0,0,0,0,0,0
		C48.4,16.8,41,17.7,33.7,15C26,12.1,20.9,6.1,19.3,4.1c-5,2.5-8.6,7.1-9.7,12.5c-0.1,0.7-0.2,1.4-0.3,2.1c0,0.5-0.1,1-0.1,1.5v19.3
		c0.8,0,1.5,0.3,2.1,0.9L17.4,46z M34.7,35.1c1.3,0,2.4,1.1,2.4,2.4S36.1,40,34.7,40s-2.4-1.1-2.4-2.4S33.4,35.1,34.7,35.1z
		 M26.3,35.1c1.3,0,2.4,1.1,2.4,2.4S27.6,40,26.3,40s-2.4-1.1-2.4-2.4S24.9,35.1,26.3,35.1z"/>
	<path d="M53.5,16c0-0.1,0-0.2-0.1-0.2C52.2,9.8,48.1,4.7,42.6,2l-0.4-0.2c-0.1,0-0.2-0.1-0.3-0.1l-0.7-0.3c-0.3-0.1-0.7-0.3-1-0.3
		c-2-0.7-4.2-1-6.3-1h-6.7c-2.7,0-5.2,0.5-7.7,1.5l-0.2,0l-0.2,0.2c-0.1,0-0.2,0.1-0.3,0.1C18.6,1.9,18.5,2,18.4,2
		c-5.6,2.7-9.7,8-10.9,14c-0.2,0.8-0.3,1.6-0.3,2.3c0,0.5-0.1,1.1-0.1,1.7v46.4c0,11.1,9,20.1,20.1,20.1h6.7
		c11.1,0,20.1-9,20.1-20.1V20.1c0-0.2,0-0.5,0-0.7C53.9,18.3,53.8,17.2,53.5,16z M9.3,20.1c0-0.6,0-1.1,0.1-1.5
		c0.1-0.7,0.2-1.4,0.3-2.1c1.1-5.4,4.7-10,9.7-12.5c1.6,2.1,6.7,8,14.3,10.9c7.3,2.8,14.8,1.8,17.6,1.3c0,0,0,0,0,0v0l0,0.1l1.1-0.3
		l-1.1,0.4c0.2,1,0.3,2,0.3,3l0,0.1c0,0.2,0,0.3,0,0.5v19.3c-0.8,0-1.5,0.3-2.1,0.9l-6,5.7c-1.6,1.5-4.1,1.1-5.2-0.7
		c-2.1-3.5-4-3.6-7.9-3.6c-4,0-5.8,0.1-7.9,3.6c-1.1,1.8-3.6,2.2-5.2,0.7l-6-5.7c-0.6-0.6-1.4-0.9-2.1-0.9L9.3,20.1L9.3,20.1z
		 M36.2,51.5H24.8v-3.1c0-2.7,2.2-4.8,4.8-4.8h1.8c2.7,0,4.8,2.2,4.8,4.8V51.5z"/>
	<circle cx="26.3" cy="37.6" r="2.4"/>
	<circle cx="34.7" cy="37.6" r="2.4"/>
	<path d="M0,36.2c0,2.5,2.1,4.6,4.6,4.6v-9.2C2.1,31.6,0,33.6,0,36.2z"/>
	<path d="M56.4,31.6v9.2c2.5,0,4.6-2.1,4.6-4.6C61,33.6,58.9,31.6,56.4,31.6z"/>
	<path d="M33,47.1L33,47.1c0,1.4-1.1,2.5-2.5,2.5S28,48.5,28,47.1l0,0v-0.7h-1.3v0.7c0,2.1,1.7,3.8,3.8,3.8s3.8-1.7,3.8-3.8v-0.7H33
		C33,46.5,33,47.1,33,47.1z"/>
</g>
</svg>
