<?xml version="1.0" encoding="utf-8"?>
<!-- Generator: Adobe Illustrator 21.0.0, SVG Export Plug-In . SVG Version: 6.00 Build 0)  -->
<svg version="1.1" id="Layer_1" xmlns="http://www.w3.org/2000/svg" xmlns:xlink="http://www.w3.org/1999/xlink" x="0px" y="0px"
	 viewBox="0 0 86.1 90" style="enable-background:new 0 0 86.1 90;" xml:space="preserve">
<g>
	<g>
		<path d="M74.5,11.5L54.6,0H31.5l-20,11.5L0,31.5v23.1l11.5,20l20,11.5h0.4c3.1,2.5,7,3.9,11.2,3.9s8.1-1.5,11.2-3.9h0.3l20-11.5
			l11.5-20V31.5L74.5,11.5z M24.7,61.8c-2.3,0-4.2-1.9-4.2-4.2s1.9-4.2,4.2-4.2V61.8z M59.1,72c0,8.9-7.2,16.1-16.1,16.1
			S27,80.8,27,72V52.3c1.9,0.4,3.9,0.7,6,0.7c7.6,0,14.4-3.1,19.4-8.1c2.9-2.9,5.2-6.5,6.5-10.4c0.2,0.9,0.2,1.8,0.2,2.7V72z
			 M61.4,61.8v-8.5c2.3,0,4.2,1.9,4.2,4.2C65.6,59.9,63.7,61.8,61.4,61.8z"/>
		<g>
			<circle cx="40.3" cy="54.6" r="1.6"/>
		</g>
		<g>
			<circle cx="45.8" cy="54.6" r="1.6"/>
		</g>
		<path d="M43.1,65c-1.8,0-3.2-1.4-3.2-3.2v-0.6H41v0.6c0,1.1,0.9,2.1,2.1,2.1s2.1-0.9,2.1-2.1v-0.6h1.1v0.6
			C46.3,63.6,44.8,65,43.1,65z"/>
	</g>
</g>
</svg>
