<?xml version="1.0" encoding="utf-8"?>
<!-- Generator: Adobe Illustrator 21.0.0, SVG Export Plug-In . SVG Version: 6.00 Build 0)  -->
<svg version="1.1" id="Layer_1" xmlns="http://www.w3.org/2000/svg" xmlns:xlink="http://www.w3.org/1999/xlink" x="0px" y="0px"
	 viewBox="0 0 82.2 76.4" style="enable-background:new 0 0 82.2 76.4;" xml:space="preserve">
<g>
	<g>
		<g>
			<g>
				<g>
					<path d="M39.9,40.7c0,0.9-0.7,1.6-1.6,1.6s-1.6-0.7-1.6-1.6c0-0.9,0.7-1.6,1.6-1.6S39.9,39.8,39.9,40.7z"/>
				</g>
				<g>
					<path d="M45.6,40.7c0,0.9-0.7,1.6-1.6,1.6c-0.9,0-1.7-0.7-1.7-1.6c0-0.9,0.7-1.6,1.7-1.6C44.8,39,45.6,39.8,45.6,40.7z"/>
				</g>
			</g>
		</g>
		<path d="M74,39c-1.9-1.2-4.3-2.1-6.5-2.6V22c0-7.3-3.6-13.8-9.2-17.8c0,0,0,0,0,0c-0.5-0.4-1-0.7-1.5-1c-3-1.8-6.4-2.9-10.1-3.1
			c-0.4,0-0.8,0-1.1,0h-9C25.8,0,16.7,8,14.9,18.3c-0.1,0.5-0.2,1.1-0.2,1.7c-0.1,0.7-0.1,1.3-0.1,2v14.3l0,0
			c-2.2,0.6-4.6,1.4-6.5,2.7c-10.8,8.4-10.8,25.5,0,33.9c3.7,2.4,9.6,3.5,11.7,3.5c2,0,7.7-1,11.5-3.3c3,2,6.6,3.2,10.5,3.2
			c3.6,0,7-1,9.8-2.8c3.7,2,8.8,2.9,10.7,2.9c2.1,0,7.9-1.1,11.7-3.5C84.9,64.5,84.9,47.4,74,39z M20,68.6c-5.5,0-10-4.5-10-10
			c0-3.8,2.1-7.1,5.2-8.8l0,0l0,0c1.4-0.8,3.1-1.2,4.8-1.2c1.1,0,2.2,0.2,3.2,0.5v2.1c-1-0.4-2-0.7-3.1-0.7c-1.6,0-3,0.4-4.2,1.2
			c-2.3,1.4-3.8,3.9-3.8,6.8c0,4.4,3.6,8,8,8c1.8,0,3.4-0.6,4.7-1.5c0.3,0.6,0.6,1.2,0.9,1.8C24,68,22,68.6,20,68.6z M49.8,72.2
			c-2.4,1.3-5.1,2.1-8,2.1c-3.3,0-6.3-0.9-8.9-2.6c-2.4-1.5-4.4-3.6-5.8-6.2c-0.3-0.6-0.7-1.3-0.9-2l0,0c-0.7-1.9-1.1-3.9-1.1-6
			v-5.1l0,0V50l0,0l0,0V38c0.1,0,0.2,0,0.3,0l0,0l0,0c1,0,1.9-0.2,2.7-0.7c1.4-0.8,2.4-2,2.8-3.6c0.6,2.4,2.8,4.3,5.5,4.3
			s4.8-1.8,5.5-4.3c0.6,2.4,2.8,4.3,5.5,4.3c2.6,0,4.9-1.8,5.5-4.3c0.3,1.3,1.2,2.5,2.2,3.2l0,0c0.9,0.6,2,1,3.2,1l0,0l0,0
			c0.1,0,0.2,0,0.3,0V48v2.1v7.4c0,2.1-0.4,4-1.1,5.8v0c-0.2,0.6-0.5,1.1-0.7,1.7c-0.3,0.6-0.6,1.2-1,1.7
			C54.2,69.1,52.2,70.9,49.8,72.2z M61.5,68.6c-1.4,0-2.8-0.3-4-0.8c0.4-0.6,0.7-1.1,1-1.8c0.9,0.4,1.9,0.6,3,0.6
			c4.7,0,8.5-3.8,8.5-8.5c0-2.8-1.3-5.2-3.3-6.8l0,0c-1.4-1.1-3.2-1.7-5.2-1.7l0,0l0,0c-0.3,0-0.6,0-1,0v-2l0,0c0.3,0,0.6,0,1,0
			c0.2,0,0.4,0,0.7,0l0,0c0,0,0,0,0,0c1.8,0.1,3.6,0.7,5,1.6c2.9,1.9,4.8,5.1,4.8,8.8C72,63.9,67.2,68.6,61.5,68.6z"/>
		<path d="M38.3,39c-0.9,0-1.6,0.7-1.6,1.6c0,0.9,0.7,1.6,1.6,1.6s1.6-0.7,1.6-1.6C39.9,39.8,39.2,39,38.3,39z"/>
		<path d="M44,39c-0.9,0-1.7,0.7-1.7,1.6c0,0.9,0.7,1.6,1.7,1.6c0.9,0,1.6-0.7,1.6-1.6C45.6,39.8,44.9,39,44,39z"/>
		<path d="M44.4,47.7v0.6c0,1.1-0.5,2-1.2,2.6c-0.6,0.5-1.3,0.7-2.1,0.7c-0.8,0-1.6-0.3-2.1-0.8c-0.7-0.6-1.2-1.5-1.2-2.5v-0.6h1.2
			v0.6c0,1.2,1,2.2,2.2,2.2c1.2,0,2.2-1,2.2-2.2v-0.6C43.2,47.7,44.4,47.7,44.4,47.7z"/>
	</g>
</g>
</svg>
