<?xml version="1.0" encoding="utf-8"?>
<!-- Generator: Adobe Illustrator 21.0.0, SVG Export Plug-In . SVG Version: 6.00 Build 0)  -->
<svg version="1.1" id="Layer_1" xmlns="http://www.w3.org/2000/svg" xmlns:xlink="http://www.w3.org/1999/xlink" x="0px" y="0px"
	 viewBox="0 0 16 15.3" style="enable-background:new 0 0 16 15.3;" xml:space="preserve">
<path d="M7.1,0.2C6.8-0.1,6.3-0.1,6,0.2C5.7,0.5,5.7,1,6,1.3L13.6,9c0.5,0.5,0.8,1.2,0.8,2c0,0.7-0.3,1.4-0.8,2
	c-1.1,1.1-2.9,1.1-3.9,0L2,5.3C1.8,5,1.6,4.6,1.6,4.2S1.8,3.4,2,3.1c0.6-0.6,1.7-0.6,2.3,0l7.6,7.6c0.1,0.1,0.1,0.4,0,0.6
	c-0.2,0.2-0.4,0.2-0.6,0L6.5,6.4c-0.3-0.3-0.8-0.3-1.1,0c-0.3,0.3-0.3,0.8,0,1.1l4.8,4.8c0.8,0.8,2,0.8,2.8,0c0.8-0.8,0.8-2,0-2.8
	L5.4,1.9C4.8,1.3,4.1,1,3.2,1C2.3,1,1.5,1.3,0.9,1.9C0.3,2.5,0,3.3,0,4.2C0,5,0.3,5.8,0.9,6.4L8.5,14c0.9,0.9,2,1.3,3.1,1.3
	c1.1,0,2.3-0.4,3.1-1.3c0.8-0.8,1.3-1.9,1.3-3.1s-0.5-2.3-1.3-3.1L7.1,0.2z"/>
</svg>
