<?xml version="1.0" encoding="utf-8"?>
<!-- Generator: Adobe Illustrator 21.0.0, SVG Export Plug-In . SVG Version: 6.00 Build 0)  -->
<svg version="1.1" id="Layer_1" xmlns="http://www.w3.org/2000/svg" xmlns:xlink="http://www.w3.org/1999/xlink" x="0px" y="0px"
	 viewBox="0 0 70 89" style="enable-background:new 0 0 70 89;" xml:space="preserve">
<g>
	<circle cx="29.2" cy="53.5" r="1.3"/>
	<circle cx="40.9" cy="53.7" r="1.2"/>
	<path d="M35.2,60.6c-2.1,0-3.8,1.7-3.8,3.8v0.7h1.3v-0.7l0,0c0-1.4,1.1-2.5,2.5-2.5s2.5,1.1,2.5,2.5l0,0v0.7H39v-0.7
		C39,62.3,37.3,60.6,35.2,60.6z"/>
	<path d="M62.8,62.9c0.9-1.8,1.6-3.7,2-5.7c0.3-0.6,0.6-1.3,0.6-2v-2.5c0-0.3,0-0.6,0-0.9V25.3c0-8.4-4.2-15.9-10.6-20.5
		C50.8,1.8,45.7,0,40.1,0h0H29.9h0C15.9,0,4.5,11.4,4.5,25.3v13.8c0,0,0,0,0,0v12.6c0,4,1,7.8,2.6,11.2C3.2,63,0,66.3,0,70.4v1
		c0,4.1,3.4,7.5,7.5,7.5l0,0c3.2,0,6-2.1,7-4.9C17.3,82.7,25.4,89,35,89c9.6,0,17.7-6.3,20.5-15c1.1,2.8,3.8,4.8,7,4.8l0,0
		c4.1,0,7.5-3.4,7.5-7.5v-1C70,66.3,66.8,63,62.8,62.9z M56.9,55.8c0.4-1.7,0.6-3.2,0.7-3.6c0.2-1,1.2-1.5,1.4-1.8
		c0.1-0.2,0.2-1,0.1-1.8c1.6,0.8,2.8,2.5,2.8,4.5c0,2.8-2.3,5-5,5V55.8z M11.4,48.3c-0.1,0.9-0.1,1.9,0.1,2.1
		c0.3,0.3,1.2,0.9,1.4,1.8c0,0.2,0.1,0.6,0.2,1.1v4.7c-2.8,0-5-2.3-5-5C8.1,50.9,9.4,49,11.4,48.3z M54.2,67.5
		c0,10.6-8.6,19.1-19.1,19.1S15.9,78,15.9,67.5v-5.8c0.1,0.1,0.2,0.2,0.3,0.3c3.4,3.1,14.9,3.3,16.9-8.1c0.3-1.6,0.6-2.5,1.2-2.7
		c0.3-0.1,0.6-0.2,1-0.2c0.4,0,0.7,0.1,1,0.2c0.6,0.3,1,1.2,1.2,2.7c1.9,11.2,13,11.2,16.7,8.3V67.5z M15.9,59.2V48.7
		c0.9-0.8,2.2-0.9,3.7-1.1c2.5-0.4,4.7-0.2,6.2,0c1.5,0.2,5,1,5.3,2.4c0.3,1.4,0.4,3,0,4.9c-1.8,8.9-10.4,7.9-12.5,7.2
		C18.1,61.9,16.8,61.4,15.9,59.2z M54.2,60.1c-0.9,1.4-1.9,1.8-2.4,2c-2.1,0.7-10.7,1.7-12.5-7.2c-0.4-1.9-0.3-3.5,0-4.9
		c0.3-1.4,3.8-2.2,5.3-2.4c1.5-0.2,3.7-0.4,6.2,0c1.3,0.2,2.4,0.3,3.3,0.8L54.2,60.1L54.2,60.1z M54.2,46.2c-0.4,0-0.8-0.1-1.2-0.1
		c-2.8-0.3-7.4-0.1-9.2,0.2c-0.7,0.1-2.1,0.4-3.4,0.8c-1.5,0.4-2.9,1-3.5,1.1c-0.6,0.2-1.1,0.2-1.6,0.2c-0.5,0-1,0-1.6-0.2
		C33,48,31.6,47.5,30.1,47c-1.3-0.4-2.6-0.7-3.4-0.8c-1.8-0.3-6.3-0.5-9.2-0.2c-0.6,0.1-1.1,0.1-1.7,0.2v-2.2
		c2.3,0.5,4.6,0.8,7.1,0.8c9,0,17.2-3.7,23.1-9.6c3.5-3.5,6.1-7.7,7.8-12.4c0.2,1,0.3,2.1,0.3,3.2L54.2,46.2L54.2,46.2z M54.4,21.3
		c-0.4-1.4-1.1-2.9-2-4.5c-0.7-1.2-1.7-2.5-2.8-3.7c-1.2-1.2-2.5-2.3-4-3.2c-1.5-1-3.2-1.7-5-2.2c-0.9-0.3-1.8-0.5-2.7-0.6
		C36.9,6.9,36,6.9,35,6.9c-1.8,0-3.7,0.3-5.5,0.8c-1.8,0.6-3.5,1.3-5,2.2c-1.5,1-2.9,2-4,3.2c-1.2,1.2-2.1,2.4-2.8,3.7
		c-0.3,0.6-0.7,1.2-1,1.8c-0.3,0.6-0.5,1.2-0.7,1.7c-0.2,0.6-0.4,1.1-0.5,1.6c-0.1,0.5-0.2,1-0.3,1.4c-0.2,0.8-0.3,1.5-0.3,2
		c-0.1,0.5-0.1,0.7-0.1,0.7s0-0.2,0-0.7c0-0.5-0.1-1.2,0-2c0-0.4,0.1-0.9,0.1-1.5c0.1-0.5,0.2-1.1,0.3-1.7c0.1-0.6,0.4-1.2,0.6-1.9
		c0.2-0.7,0.5-1.3,0.8-2c0.4-0.7,0.7-1.4,1.2-2.1c0.5-0.7,0.9-1.4,1.5-2.1c1.1-1.4,2.5-2.7,4.2-3.8c1.6-1.1,3.5-2,5.4-2.7
		c2-0.6,4.1-0.9,6.2-1c1,0,2.1,0.1,3.1,0.3c1,0.2,2.1,0.4,3.1,0.7c2,0.6,3.8,1.6,5.4,2.7c1.6,1.1,3,2.4,4.2,3.8
		c1.2,1.4,2.1,2.8,2.7,4.2c0.6,1.2,1,2.4,1.3,3.5c0.4,1.4,0.5,2.7,0.6,3.6c0.1,0.9,0,1.6,0,2c0,0.5,0,0.7,0,0.7s0-0.2-0.1-0.7
		c-0.1-0.5-0.2-1.1-0.3-2C54.8,22.7,54.6,22,54.4,21.3z"/>
</g>
</svg>
