<?xml version="1.0" encoding="utf-8"?>
<!-- Generator: Adobe Illustrator 21.0.0, SVG Export Plug-In . SVG Version: 6.00 Build 0)  -->
<svg version="1.1" id="Layer_1" xmlns="http://www.w3.org/2000/svg" xmlns:xlink="http://www.w3.org/1999/xlink" x="0px" y="0px"
	 viewBox="0 0 51 74.7" style="enable-background:new 0 0 51 74.7;" xml:space="preserve">
<g>
	<g>
		<g>
			<circle cx="19.6" cy="44.8" r="1.1"/>
		</g>
	</g>
	<g>
		<g>
			<circle cx="31.5" cy="45" r="1"/>
		</g>
	</g>
	<g>
		<path d="M25.7,53.6c-1.8,0-3.2-1.4-3.2-3.2v-0.6h1.1v0.6c0,1.1,0.9,2.1,2.1,2.1s2.1-0.9,2.1-2.1v-0.6h1.1v0.6
			C28.9,52.1,27.5,53.6,25.7,53.6z"/>
	</g>
</g>
<g>
	<path d="M42.9,10.2c0,1.8-0.2,3.5-0.5,5.2c-0.1,0.6-0.3,1.2-0.4,1.8c-0.2,0.6-0.4,1.3-0.6,1.9c-1.4,4-3.6,7.5-6.5,10.4
		c-5,5-11.8,8.1-19.4,8.1c-2,0-4-0.2-6-0.7c-0.3-0.1-0.7-0.2-1-0.2c-0.3-0.1-0.7-0.2-1-0.3c-2.7-0.8-5.2-2-7.5-3.6V21.2
		C0,9.5,9.5,0,21.2,0h8.6c4.6,0,8.9,1.5,12.4,4C42.6,6,42.9,8.1,42.9,10.2z"/>
</g>
<path d="M42.2,4c-3.5-2.5-7.7-4-12.4-4h-8.6C9.6,0,0,9.5,0,21.2v17.7c0,0.1,0,0.2,0,0.4v29.4c0,2.8,2.2,5,5,5s5-2.2,5-5v-2.9
	c3.1,5.3,8.9,8.9,15.5,8.9s12.3-3.5,15.5-8.8v2.8c0,2.8,2.2,5,5,5s5-2.2,5-5v-24c0-0.4,0-0.9,0-1.3V21.2C51,14.2,47.5,7.9,42.2,4z
	 M7.2,48.7c-2.3,0-4.2-1.9-4.2-4.2s1.9-4.2,4.2-4.2V48.7z M41,60.9c0,0.2-0.1,0.3-0.1,0.5c-2.1,6.5-8.2,11.2-15.3,11.2
	c-7.2,0-13.3-4.7-15.3-11.2c-0.1-0.2-0.1-0.5-0.2-0.8V47.5c0.4,0.1,0.7,0.2,1.1,0.2h9.1c2,0,3.6-1.6,3.6-3.6v-1
	c0-0.3-0.1-0.6-0.1-0.9c0.4-0.3,0.9-0.5,1.5-0.5c0.8,0,1.5,0.3,2,0.9c0,0.2-0.1,0.3-0.1,0.5v1c0,2,1.6,3.6,3.6,3.6h9.1
	c0.4,0,0.7-0.1,1.1-0.2V60.9z M10,45.7v-4.4c0.3-0.2,0.7-0.3,1.1-0.3h9.1c1.1,0,2,0.9,2,2v1c0,1.1-0.9,2-2,2h-9.1
	C10.7,46.1,10.3,46,10,45.7z M41,45.8c-0.3,0.2-0.7,0.3-1.1,0.3h-9.1c-1.1,0-2-0.9-2-2v-1c0-1.1,0.9-2,2-2h9.1
	c0.4,0,0.7,0.1,1.1,0.3V45.8z M41.6,36.9c-0.4,0.7-0.6,1.5-0.6,2.3v0.3c-0.3-0.1-0.7-0.2-1.1-0.2h-9.1c-1.6,0-3,1-3.4,2.5
	c-0.6-0.5-1.3-0.8-2.1-0.8c-0.6,0-1.2,0.2-1.7,0.5c-0.6-1.3-1.8-2.2-3.3-2.2h-9.1c-0.4,0-0.8,0.1-1.1,0.2v-0.4
	c0-0.8-0.2-1.5-0.5-2.2v-0.1c1.9,0.4,3.9,0.7,6,0.7c7.6,0,14.4-3.1,19.4-8.1c2.9-2.9,5.2-6.5,6.5-10.4c0.2,0.9,0.2,1.8,0.2,2.7v15.2
	H41.6z M43.8,48.7v-8.5c2.3,0,4.2,1.9,4.2,4.2C48.1,46.8,46.2,48.7,43.8,48.7z"/>
</svg>
