<?xml version="1.0" encoding="utf-8"?>
<!-- Generator: Adobe Illustrator 21.0.0, SVG Export Plug-In . SVG Version: 6.00 Build 0)  -->
<svg version="1.1" id="Layer_1" xmlns="http://www.w3.org/2000/svg" xmlns:xlink="http://www.w3.org/1999/xlink" x="0px" y="0px"
	 viewBox="0 0 64.4 74.5" style="enable-background:new 0 0 64.4 74.5;" xml:space="preserve">
<path d="M40.6,0H23.8C10.7,0,0,10.7,0,23.8v16.8c0,10.2,6.4,18.9,15.4,22.3c2.6,6.8,9.2,11.6,16.8,11.6S46.4,69.7,49,62.9
	c9-3.4,15.4-12.1,15.4-22.3V23.9C64.5,10.7,53.7,0,40.6,0z M32.2,72.6c-6.3,0-11.7-3.6-14.3-8.8c-1.1-2.2-1.7-4.6-1.7-7.2V26h20.4
	v-9.9l4.5,9.9h7.3v30.5c0,2.6-0.6,5.1-1.7,7.2C43.9,69,38.5,72.6,32.2,72.6z M13.9,46.4c-2.3,0-4.2-1.9-4.2-4.2s1.9-4.2,4.2-4.2
	V46.4z M50.5,46.4v-8.5c2.3,0,4.2,1.9,4.2,4.2C54.8,44.5,52.9,46.4,50.5,46.4z"/>
<g>
	<circle cx="29.5" cy="39.2" r="1.6"/>
</g>
<g>
	<circle cx="35" cy="39.2" r="1.6"/>
</g>
<path d="M32.2,49.6c-1.8,0-3.2-1.4-3.2-3.2v-0.6h1.1v0.6c0,1.1,0.9,2.1,2.1,2.1s2.1-0.9,2.1-2.1v-0.6h1.1v0.6
	C35.4,48.2,34,49.6,32.2,49.6z"/>
</svg>
