<?xml version="1.0" encoding="utf-8"?>
<!-- Generator: Adobe Illustrator 21.0.0, SVG Export Plug-In . SVG Version: 6.00 Build 0)  -->
<svg version="1.1" id="Layer_1" xmlns="http://www.w3.org/2000/svg" xmlns:xlink="http://www.w3.org/1999/xlink" x="0px" y="0px"
	 viewBox="0 0 52.6 87" style="enable-background:new 0 0 52.6 87;" xml:space="preserve">
<g>
	<g>
		<g>
			<path d="M26.3,53c-1.6,0-2.9-1.3-2.9-2.9v-0.5h1v0.5c0,1,0.8,1.9,1.9,1.9s1.9-0.8,1.9-1.9v-0.5h1v0.5C29.2,51.7,27.9,53,26.3,53z
				"/>
		</g>
		<path d="M49.5,35.7v-8.5c0-6.4-3.2-12.1-8.1-15.7c-0.6-0.5-1.3-0.9-1.9-1.2c0-0.3,0-0.5,0-0.8c0-1.9-0.2-3.8-0.7-5.6
			c-1.4-5.9-20.7-3.6-24.4-2.4c-8.4,2.6-14,9.1-14,18.1c0,0,0,10.5,0,10.5c0.8,0.6,1.7,1.1,2.6,1.5v4.1C2,36.8,1.3,38.3,1.3,40v4.2
			c0,1.7,0.7,3.2,1.8,4.4c0.4,5.5,3,10.3,7,13.6c1.4,7.7,8.1,13.6,16.2,13.6s14.8-5.9,16.2-13.6c4-3.3,6.7-8.2,7-13.6
			c1.1-1.1,1.8-2.7,1.8-4.4V40C51.3,38.3,50.6,36.8,49.5,35.7z M40.9,27.7v6.1h-7.1c-3.4,0-6.2,2.8-6.2,6.2v1.1
			c-0.4-0.2-0.8-0.2-1.1-0.2c-0.6,0-1.2,0.2-1.7,0.6V40c0-3.1-2.3-5.6-5.2-6.1c4.8-1,9.1-3.4,12.5-6.8c2.4-2.4,4.3-5.3,5.6-8.4
			C39.8,21.2,40.9,24.4,40.9,27.7z M7.5,47.9c-2,0-3.6-1.6-3.6-3.6V40c0-2,1.6-3.6,3.6-3.6h11.2c2,0,3.6,1.6,3.6,3.6v1.8h0
			c-0.3,1.3-1.4,2.2-2.8,2.2c-1.3,0-2.5-0.9-2.8-2.2H16c0.3,1.7,1.8,2.9,3.6,2.9c1.1,0,2.1-0.5,2.8-1.3v0.9c0,2-1.6,3.6-3.6,3.6H7.5
			z M40.9,59.4c0,1.5-0.2,3-0.7,4.4c-1.9,5.9-7.4,10.2-14,10.2c-6.5,0-12.1-4.3-14-10.2c-0.4-1.4-0.7-2.9-0.7-4.4v-9h7.1
			c3.4,0,6.2-2.8,6.2-6.2v-2c0.4-0.6,1.1-0.8,1.7-0.8c0.4,0,0.8,0.1,1.1,0.3v2.5c0,3.4,2.8,6.2,6.2,6.2h7.1L40.9,59.4L40.9,59.4z
			 M48.8,44.2c0,2-1.6,3.6-3.6,3.6H33.9c-2,0-3.6-1.6-3.6-3.6v-0.6c0.7,0.6,1.6,1,2.5,1c1.8,0,3.2-1.2,3.6-2.9h-0.8
			c-0.3,1.3-1.4,2.2-2.8,2.2c-1.1,0-2.1-0.6-2.5-1.6V40c0-2,1.6-3.6,3.6-3.6h11.2c2,0,3.6,1.6,3.6,3.6C48.8,40,48.8,44.2,48.8,44.2z
			"/>
		<g>
			<path d="M52.6,76.1c0,6-7,10.9-7,10.9s-7-4.9-7-10.9c0-6,7-10.9,7-10.9S52.6,70.1,52.6,76.1z"/>
		</g>
		<g>
			<path d="M14,74.6c0,6-7,10.9-7,10.9s-7-4.9-7-10.9c0-6,7-10.9,7-10.9S14,68.6,14,74.6z"/>
		</g>
	</g>
</g>
</svg>
